<svg width="61" height="33" viewBox="0 0 61 33" fill="none" xmlns="http://www.w3.org/2000/svg">
<path d="M18.0334 16.468C18.0334 18.316 17.6734 19.924 16.9534 21.292C16.2334 22.636 15.2134 23.68 13.8934 24.424C12.5974 25.144 11.0614 25.504 9.28539 25.504C7.50939 25.504 5.96139 25.144 4.64139 24.424C3.32139 23.68 2.28939 22.636 1.54539 21.292C0.825391 19.948 0.465391 18.34 0.465391 16.468C0.465391 14.62 0.837391 13.024 1.58139 11.68C2.32539 10.336 3.35739 9.304 4.67739 8.584C5.99739 7.84 7.53339 7.468 9.28539 7.468C11.0374 7.468 12.5614 7.84 13.8574 8.584C15.1774 9.304 16.1974 10.348 16.9174 11.716C17.6614 13.06 18.0334 14.644 18.0334 16.468ZM9.28539 10.996C7.96539 10.996 6.92139 11.476 6.15339 12.436C5.40939 13.396 5.03739 14.74 5.03739 16.468C5.03739 18.244 5.40939 19.612 6.15339 20.572C6.89739 21.508 7.94139 21.976 9.28539 21.976C10.6054 21.976 11.6374 21.496 12.3814 20.536C13.1254 19.576 13.4974 18.22 13.4974 16.468C13.4974 14.764 13.1254 13.432 12.3814 12.472C11.6374 11.488 10.6054 10.996 9.28539 10.996ZM13.1734 4.588H4.31739C4.22139 4.372 4.11339 4.12 3.99339 3.832C3.89739 3.544 3.84939 3.232 3.84939 2.896C3.84939 2.272 3.99339 1.828 4.28139 1.564C4.56939 1.3 4.94139 1.168 5.39739 1.168H14.2534C14.3974 1.36 14.5054 1.612 14.5774 1.924C14.6494 2.212 14.6854 2.512 14.6854 2.824C14.6854 3.472 14.5534 3.928 14.2894 4.192C14.0254 4.456 13.6534 4.588 13.1734 4.588Z" fill="#0266D8"/>
<path d="M26.2535 12.04V16.972H21.8255V11.68C21.8255 11.08 21.9695 10.576 22.2575 10.168C22.5455 9.736 22.9535 9.34 23.4815 8.98C24.2015 8.548 25.1135 8.188 26.2175 7.9C27.3215 7.612 28.5095 7.468 29.7815 7.468C32.0375 7.468 33.1655 8.164 33.1655 9.556C33.1655 9.892 33.1175 10.204 33.0215 10.492C32.9255 10.756 32.8055 10.996 32.6615 11.212C32.4215 11.164 32.1215 11.128 31.7615 11.104C31.4015 11.056 31.0175 11.032 30.6095 11.032C29.7455 11.032 28.9295 11.128 28.1615 11.32C27.4175 11.488 26.7815 11.728 26.2535 12.04ZM21.8255 15.496L26.2535 15.712V24.928C26.0615 25 25.7855 25.06 25.4255 25.108C25.0655 25.18 24.6695 25.216 24.2375 25.216C23.4215 25.216 22.8095 25.072 22.4015 24.784C22.0175 24.472 21.8255 23.932 21.8255 23.164V15.496ZM35.8829 2.896C35.8829 2.2 36.1229 1.612 36.6029 1.132C37.1069 0.651999 37.7309 0.411999 38.4749 0.411999C39.2429 0.411999 39.8549 0.651999 40.3109 1.132C40.7909 1.612 41.0309 2.2 41.0309 2.896C41.0309 3.568 40.7909 4.156 40.3109 4.66C39.8549 5.14 39.2429 5.38 38.4749 5.38C37.7309 5.38 37.1069 5.14 36.6029 4.66C36.1229 4.156 35.8829 3.568 35.8829 2.896ZM36.2429 15.496H40.7069V24.928C40.5149 25 40.2389 25.06 39.8789 25.108C39.5189 25.18 39.1229 25.216 38.6909 25.216C37.8749 25.216 37.2629 25.072 36.8549 24.784C36.4469 24.472 36.2429 23.932 36.2429 23.164V15.496ZM40.7069 17.764H36.2429V8.116C36.4349 8.044 36.7109 7.984 37.0709 7.936C37.4549 7.864 37.8629 7.828 38.2949 7.828C39.1349 7.828 39.7469 7.984 40.1309 8.296C40.5149 8.584 40.7069 9.124 40.7069 9.916V17.764ZM52.5416 24.388C51.1256 24.388 49.8176 24.124 48.6176 23.596C47.4176 23.044 46.4576 22.144 45.7376 20.896C45.0176 19.648 44.6576 18.004 44.6576 15.964C44.6576 14.092 45.0176 12.532 45.7376 11.284C46.4816 10.012 47.5136 9.064 48.8336 8.44C50.1776 7.792 51.7136 7.468 53.4416 7.468C54.6656 7.468 55.7936 7.624 56.8256 7.936C57.8816 8.248 58.7216 8.608 59.3456 9.016C59.7536 9.28 60.0776 9.604 60.3176 9.988C60.5816 10.348 60.7136 10.792 60.7136 11.32V22.552H56.3936V11.716C56.0816 11.524 55.6976 11.356 55.2416 11.212C54.7856 11.068 54.2216 10.996 53.5496 10.996C52.2296 10.996 51.1496 11.404 50.3096 12.22C49.4936 13.036 49.0856 14.284 49.0856 15.964C49.0856 17.812 49.4816 19.108 50.2736 19.852C51.0896 20.596 52.0856 20.968 53.2616 20.968C54.1736 20.968 54.9056 20.812 55.4576 20.5C56.0336 20.188 56.5136 19.852 56.8976 19.492L57.0416 23.092C56.6096 23.428 56.0096 23.728 55.2416 23.992C54.4976 24.256 53.5976 24.388 52.5416 24.388ZM56.4656 25.108V21.58H60.7136V25.252C60.7136 26.884 60.3416 28.204 59.5976 29.212C58.8536 30.244 57.8336 31 56.5376 31.48C55.2656 31.96 53.8376 32.2 52.2536 32.2C51.0056 32.2 49.9136 32.08 48.9776 31.84C48.0656 31.6 47.3936 31.348 46.9616 31.084C46.1696 30.604 45.7736 29.944 45.7736 29.104C45.7736 28.672 45.8696 28.288 46.0616 27.952C46.2536 27.616 46.4816 27.364 46.7456 27.196C47.3456 27.58 48.0896 27.916 48.9776 28.204C49.8896 28.492 50.8496 28.636 51.8576 28.636C53.2976 28.636 54.4256 28.348 55.2416 27.772C56.0576 27.22 56.4656 26.332 56.4656 25.108Z" fill="white"/>
</svg>
